<svg width="704" height="136" viewBox="0 0 704 136" fill="none" xmlns="http://www.w3.org/2000/svg">
<path d="M136 0L0 136H136V0Z" fill="#4760D9"/>
<path d="M204 0L68 136H204V0Z" fill="#4760D9"/>
<path d="M136 68L68 136H136V68Z" fill="#4F6DF7"/>
<path d="M315.112 107H299.452V74.708H263.92V107H248.26V27.512H263.92V59.588H299.452V27.512H315.112V107ZM380.624 59.804V107H366.908L365.828 99.44C364.172 102.464 361.832 104.876 358.808 106.676C355.856 108.404 352.364 109.268 348.332 109.268C344.012 109.268 340.412 107.936 337.532 105.272C334.652 102.608 333.176 99.224 333.104 95.12V59.804H348.224V89.504C348.44 94.112 350.564 96.416 354.596 96.416C357.908 96.416 360.536 94.796 362.48 91.556C364.496 88.316 365.504 84.14 365.504 79.028V59.804H380.624ZM429.222 57.428C433.326 57.428 437.07 58.436 440.454 60.452C443.91 62.396 446.646 65.24 448.662 68.984C450.678 72.728 451.686 77.192 451.686 82.376C451.686 87.56 450.57 92.132 448.338 96.092C446.106 99.98 443.118 103.004 439.374 105.164C435.63 107.252 431.562 108.296 427.17 108.296C420.762 108.296 415.47 106.28 411.294 102.248V107H396.174V21.788H411.186V63.044C413.202 61.388 415.758 60.056 418.854 59.048C421.95 57.968 425.406 57.428 429.222 57.428ZM423.822 95.552C426.054 95.552 428.106 94.976 429.978 93.824C431.922 92.672 433.47 91.088 434.622 89.072C435.774 86.984 436.35 84.716 436.35 82.268C436.35 78.524 435.126 75.428 432.678 72.98C430.23 70.532 427.278 69.308 423.822 69.308C420.87 69.308 418.278 69.992 416.046 71.36C413.814 72.728 412.23 74.564 411.294 76.868V88.424C413.886 93.176 418.062 95.552 423.822 95.552ZM525.669 100.412C523.653 102.068 520.449 103.724 516.057 105.38C511.665 107.036 506.877 107.864 501.693 107.864C493.413 107.864 486.213 106.064 480.093 102.464C473.973 98.864 469.293 94.04 466.053 87.992C462.813 81.872 461.193 75.176 461.193 67.904C461.193 59.912 462.813 52.784 466.053 46.52C469.293 40.256 473.829 35.396 479.661 31.94C485.493 28.412 492.225 26.648 499.857 26.648C504.681 26.648 509.145 27.296 513.249 28.592C517.353 29.888 520.953 31.508 524.049 33.452L517.893 48.248C512.205 43.928 506.373 41.768 500.397 41.768C496.365 41.768 492.585 42.884 489.057 45.116C485.529 47.348 482.721 50.408 480.633 54.296C478.545 58.112 477.501 62.36 477.501 67.04C477.501 72.152 478.473 76.652 480.417 80.54C482.361 84.356 485.133 87.344 488.733 89.504C492.333 91.664 496.545 92.744 501.369 92.744C505.257 92.744 508.749 92.132 511.845 90.908C514.941 89.612 517.389 88.1 519.189 86.372L525.669 100.412ZM589.634 59.804V107H574.514V101.168C569.978 105.92 564.722 108.296 558.746 108.296C551.762 108.296 546.074 106.208 541.682 102.032C537.362 97.856 535.202 91.664 535.202 83.456C535.202 78.272 536.246 73.736 538.334 69.848C540.494 65.888 543.338 62.828 546.866 60.668C550.394 58.508 554.174 57.428 558.206 57.428C562.382 57.428 565.694 58.076 568.142 59.372C570.59 60.596 572.75 62.36 574.622 64.664L575.594 59.804H589.634ZM563.066 95.984C568.322 95.984 572.138 93.608 574.514 88.856V77.3C573.65 74.996 572.138 73.16 569.978 71.792C567.89 70.424 565.406 69.74 562.526 69.74C559.214 69.74 556.37 70.964 553.994 73.412C551.69 75.86 550.538 78.956 550.538 82.7C550.538 85.148 551.114 87.416 552.266 89.504C553.418 91.52 554.93 93.104 556.802 94.256C558.746 95.408 560.834 95.984 563.066 95.984ZM620.01 70.604C621.306 68.084 623.07 65.816 625.302 63.8C627.606 61.784 629.946 60.236 632.322 59.156C634.698 58.004 636.57 57.428 637.938 57.428L637.182 72.548C636.75 72.476 636.138 72.44 635.346 72.44C632.322 72.44 629.658 73.232 627.354 74.816C625.05 76.4 623.286 78.452 622.062 80.972C620.838 83.42 620.226 85.94 620.226 88.532V107H605.214V59.804H618.822L620.01 70.604ZM670.945 95.444C673.969 95.444 677.101 94.4 680.341 92.312L687.037 103.544C684.445 104.984 681.709 106.136 678.829 107C675.949 107.864 673.213 108.296 670.621 108.296C665.005 108.296 660.145 107.252 656.041 105.164C652.009 103.004 648.949 100.016 646.861 96.2C644.773 92.312 643.729 87.884 643.729 82.916C643.729 78.308 644.917 74.06 647.293 70.172C649.741 66.284 653.053 63.224 657.229 60.992C661.405 58.688 665.977 57.536 670.945 57.536C677.713 57.536 683.257 59.516 687.577 63.476C691.969 67.436 694.813 73.088 696.109 80.432L661.549 91.448C663.853 94.112 666.985 95.444 670.945 95.444ZM669.757 69.308C666.373 69.308 663.673 70.46 661.657 72.764C659.641 75.068 658.633 78.164 658.633 82.052V83.024L679.369 76.004C677.857 71.54 674.653 69.308 669.757 69.308Z" fill="white"/>
</svg>
