<?xml version="1.0" standalone="no"?>
<!DOCTYPE svg PUBLIC "-//W3C//DTD SVG 20010904//EN"
 "http://www.w3.org/TR/2001/REC-SVG-20010904/DTD/svg10.dtd">
<svg version="1.0" xmlns="http://www.w3.org/2000/svg"
 width="4500.000000pt" height="3600.000000pt" viewBox="0 0 4500.000000 3600.000000"
 preserveAspectRatio="xMidYMid meet">

<g transform="translate(0.000000,3600.000000) scale(0.100000,-0.100000)"
fill="#000000" stroke="none">
<path d="M0 18000 l0 -18000 22500 0 22500 0 0 18000 0 18000 -22500 0 -22500
0 0 -18000z m11625 11530 c249 -28 555 -135 759 -267 261 -168 444 -496 481
-858 9 -84 677 -5439 679 -5442 1 -2 945 -3 2097 -3 l2094 -1 53 88 c101 167
215 303 354 420 414 351 950 485 1477 367 123 -27 268 -78 363 -125 l57 -29
74 88 c41 48 424 503 851 1011 555 661 775 929 770 940 -251 572 -190 1205
164 1701 83 117 249 285 364 371 401 296 911 404 1388 295 731 -168 1274 -801
1318 -1538 26 -435 -94 -830 -353 -1163 -74 -95 -235 -253 -325 -320 -216
-158 -491 -272 -765 -317 -161 -25 -512 -11 -636 28 -12 3 -225 -244 -778
-902 -419 -499 -760 -908 -758 -910 2 -2 1119 -4 2482 -4 l2479 -1 37 83 c138
313 411 614 711 783 496 279 1088 295 1593 43 497 -247 838 -716 926 -1273 21
-132 16 -409 -9 -547 -45 -238 -153 -496 -289 -688 -87 -122 -272 -306 -393
-392 -287 -204 -643 -318 -990 -318 -564 0 -1110 293 -1410 755 l-55 84 -2817
1 -2817 0 -55 -106 c-60 -115 -144 -237 -220 -321 l-49 -55 780 -780 780 -780
94 30 c593 190 1238 41 1682 -387 170 -164 272 -304 366 -502 126 -263 178
-539 159 -847 -23 -391 -188 -763 -465 -1052 -588 -614 -1516 -702 -2215 -210
-119 83 -304 268 -391 390 -81 113 -195 339 -237 467 -58 183 -75 296 -75 523
0 210 15 327 60 475 l15 50 -439 440 c-242 242 -718 720 -1058 1063 l-618 622
-95 25 c-431 110 -799 387 -1037 782 -34 58 -68 120 -75 139 l-12 34 -2016 0
c-2123 0 -2122 0 -2379 -45 -197 -34 -502 -133 -609 -198 -175 -106 -393 -298
-501 -442 -65 -86 -180 -318 -221 -445 -17 -52 -40 -149 -52 -215 -25 -147
-21 -327 11 -479 35 -164 121 -496 153 -586 78 -220 262 -514 477 -760 154
-177 242 -256 851 -763 344 -286 780 -652 970 -812 190 -160 498 -416 685
-570 421 -346 1058 -881 1185 -996 110 -99 185 -157 218 -170 29 -11 118 24
133 53 27 50 -12 97 -299 370 -584 555 -1388 1285 -2656 2412 -342 304 -657
592 -700 639 -314 345 -495 663 -568 1001 -19 85 -22 132 -22 296 0 210 15
313 70 480 35 105 123 282 183 367 113 161 326 286 617 365 113 30 128 32 294
32 163 0 183 -2 290 -31 273 -73 448 -156 610 -292 63 -53 162 -132 219 -175
85 -65 1395 -1220 3296 -2906 165 -146 775 -686 1355 -1200 1921 -1701 1879
-1662 2105 -1935 414 -499 577 -860 659 -1465 39 -283 39 -344 11 -1920 -3
-173 -15 -889 -26 -1590 -38 -2457 -34 -2275 -58 -2365 -35 -133 -102 -256
-185 -340 -115 -117 -289 -222 -501 -304 l-100 -39 -2005 9 c-2189 11 -2115 8
-2265 68 -231 93 -372 260 -498 591 l-36 95 -29 845 c-16 465 -30 897 -32 960
-4 235 -61 507 -153 736 -104 256 -265 486 -575 822 -135 147 -3367 3022
-3627 3227 -734 579 -1256 1069 -1454 1364 -158 234 -249 566 -291 1061 -36
428 -36 774 -15 7070 17 5154 17 5109 39 5205 61 262 166 455 339 622 215 207
527 358 822 396 58 8 121 7 210 -3z m22085 -19 c251 -57 514 -197 697 -374
196 -190 317 -433 352 -712 6 -50 12 -886 17 -2215 3 -1174 10 -2965 14 -3980
4 -1015 8 -2459 8 -3210 1 -751 5 -1419 8 -1485 7 -137 -11 -953 -26 -1180
-35 -506 -122 -882 -258 -1110 -184 -309 -668 -773 -1446 -1389 -330 -261
-3545 -3122 -3705 -3297 -323 -354 -497 -624 -595 -921 -66 -201 -106 -434
-106 -618 0 -58 -13 -483 -30 -945 -33 -945 -25 -867 -120 -1071 -120 -256
-253 -395 -450 -468 -153 -56 -88 -54 -2260 -65 l-2005 -9 -89 34 c-48 19
-133 57 -189 85 -296 150 -438 306 -504 557 -23 87 -26 120 -30 322 -35 1940
-79 5208 -72 5315 32 440 137 855 291 1145 144 271 412 614 705 901 166 163
6311 5603 6447 5707 61 46 161 126 221 177 156 131 335 216 605 288 107 29
127 31 290 31 166 0 181 -2 294 -32 212 -57 406 -152 521 -255 106 -94 235
-325 294 -525 85 -289 80 -624 -14 -909 -62 -189 -218 -459 -380 -658 -130
-160 -233 -262 -539 -533 -1380 -1223 -2450 -2194 -3017 -2738 -239 -229 -261
-257 -238 -308 13 -27 80 -61 116 -58 34 3 94 46 215 155 141 127 725 618
1173 987 204 167 552 457 775 645 223 187 659 552 970 811 362 301 601 508
665 575 290 302 506 626 604 904 41 115 146 530 167 660 32 199 5 453 -71 665
-38 104 -147 317 -200 389 -150 203 -435 430 -641 511 -256 100 -528 158 -832
176 -62 4 -112 8 -112 9 0 1 14 33 31 70 30 67 35 107 449 3414 230 1840 421
3380 425 3421 26 279 140 538 321 729 146 155 399 284 704 360 220 55 375 61
550 22z"/>
</g>
</svg>
