<?xml version="1.0" standalone="no"?>
<!DOCTYPE svg PUBLIC "-//W3C//DTD SVG 20010904//EN"
 "http://www.w3.org/TR/2001/REC-SVG-20010904/DTD/svg10.dtd">
<svg version="1.0" xmlns="http://www.w3.org/2000/svg"
 width="4500.000000pt" height="3600.000000pt" viewBox="0 0 4500.000000 3600.000000"
 preserveAspectRatio="xMidYMid meet">

<g transform="translate(0.000000,3600.000000) scale(0.100000,-0.100000)"
fill="#000000" stroke="none">
<path d="M11190 29531 c0 -5 9 -7 20 -4 11 3 20 7 20 9 0 2 -9 4 -20 4 -11 0
-20 -4 -20 -9z"/>
<path d="M11915 29530 c28 -12 85 -12 85 0 0 6 -24 10 -52 9 -39 0 -48 -3 -33
-9z"/>
<path d="M12026 29523 c-8 -21 18 -43 50 -43 12 0 33 -9 47 -20 14 -11 32 -20
40 -20 9 0 18 -4 21 -9 3 -5 32 -24 64 -41 31 -18 87 -57 124 -86 37 -30 69
-54 71 -54 20 0 176 -183 237 -277 35 -55 50 -66 50 -35 0 34 -18 79 -41 104
-13 14 -40 47 -59 72 -42 55 -147 166 -158 166 -4 0 -15 8 -24 18 -37 38 -55
52 -66 52 -6 0 -19 11 -28 25 -9 14 -22 25 -29 25 -7 0 -18 6 -25 14 -6 8 -18
12 -25 9 -8 -2 -25 7 -38 21 -13 14 -32 26 -42 26 -9 0 -19 8 -22 19 -4 14
-17 20 -56 24 -28 2 -53 10 -55 16 -6 17 -29 13 -36 -6z"/>
<path d="M33770 29536 c0 -2 9 -6 20 -9 11 -3 20 -1 20 4 0 5 -9 9 -20 9 -11
0 -20 -2 -20 -4z"/>
<path d="M33992 29473 c4 -19 84 -67 98 -58 6 3 10 14 10 25 0 19 -19 30 -51
30 -10 0 -19 5 -19 10 0 6 -9 10 -21 10 -14 0 -19 -5 -17 -17z"/>
<path d="M10902 29428 c6 -18 22 -20 43 -3 19 14 18 14 -13 15 -22 0 -32 -4
-30 -12z"/>
<path d="M32747 29429 c-9 -5 -21 -8 -26 -5 -5 3 -14 -1 -21 -9 -7 -8 -18 -15
-25 -15 -7 0 -20 -11 -29 -25 -9 -14 -22 -25 -29 -25 -7 0 -20 -8 -29 -17 -33
-34 -55 -53 -61 -53 -10 0 -117 -114 -157 -166 -19 -25 -46 -58 -59 -72 -23
-25 -41 -70 -41 -104 0 -31 15 -20 50 35 61 94 217 277 237 277 2 0 34 24 71
54 37 29 93 68 124 86 32 17 61 36 64 41 7 12 -47 11 -69 -2z"/>
<path d="M10833 29411 c-30 -15 -48 -45 -37 -63 9 -15 84 31 84 52 0 27 -11
30 -47 11z"/>
<path d="M34126 29423 c-17 -17 -3 -44 33 -63 42 -21 54 -17 45 16 -6 20 -68
57 -78 47z"/>
<path d="M10726 29335 c-8 -8 -19 -15 -25 -15 -6 0 -15 -9 -21 -20 -6 -11 -17
-20 -25 -20 -8 0 -18 -7 -22 -15 -5 -8 -30 -37 -57 -65 -26 -28 -70 -79 -96
-115 -26 -35 -50 -61 -54 -58 -3 4 -6 2 -7 -3 -2 -29 -9 -48 -23 -63 -9 -10
-16 -32 -16 -49 0 -22 -5 -32 -15 -32 -10 0 -15 -10 -15 -27 0 -24 6 -18 39
39 22 37 57 91 79 120 50 65 227 249 265 273 17 11 27 26 27 41 0 27 -12 31
-34 9z"/>
<path d="M34240 29326 c0 -15 10 -30 28 -41 37 -24 214 -208 264 -273 22 -29
57 -83 79 -120 33 -57 39 -63 39 -39 0 17 -5 27 -15 27 -10 0 -15 10 -15 32 0
17 -7 39 -16 49 -14 15 -21 34 -23 63 -1 5 -4 7 -7 3 -4 -3 -28 23 -54 58 -26
36 -70 87 -96 115 -27 28 -52 57 -57 65 -4 8 -14 15 -22 15 -8 0 -19 9 -25 20
-6 11 -15 20 -21 20 -6 0 -17 7 -25 15 -22 22 -34 18 -34 -9z"/>
<path d="M12740 28871 c0 -6 5 -13 10 -16 6 -3 10 1 10 9 0 9 -4 16 -10 16 -5
0 -10 -4 -10 -9z"/>
<path d="M32240 28864 c0 -8 5 -12 10 -9 6 3 10 10 10 16 0 5 -4 9 -10 9 -5 0
-10 -7 -10 -16z"/>
<path d="M10295 28802 c-3 -7 -5 -24 -5 -37 0 -23 -16 -68 -46 -128 -21 -44
-30 -137 -13 -137 9 0 20 27 33 78 10 42 33 114 51 159 l33 83 -24 -2 c-13 -1
-26 -8 -29 -16z"/>
<path d="M12770 28818 c0 -2 14 -39 31 -83 17 -44 35 -100 40 -125 6 -25 12
-55 15 -67 3 -17 11 -23 31 -23 25 0 26 1 20 51 -4 29 -13 59 -22 69 -8 9 -15
30 -15 47 0 17 -6 33 -14 36 -7 3 -17 26 -20 51 -7 43 -9 46 -37 46 -16 0 -29
-1 -29 -2z"/>
<path d="M32164 28774 c-3 -25 -13 -48 -20 -51 -8 -3 -14 -19 -14 -36 0 -17
-7 -38 -15 -47 -9 -10 -18 -40 -22 -69 -6 -50 -5 -51 20 -51 20 0 28 6 31 23
3 12 9 42 15 67 5 25 23 81 40 125 17 44 31 81 31 83 0 1 -13 2 -29 2 -28 0
-30 -3 -37 -46z"/>
<path d="M34685 28738 c18 -46 41 -118 51 -160 13 -51 24 -78 33 -78 17 0 8
93 -13 137 -31 62 -46 105 -46 131 0 34 -9 46 -37 50 -21 3 -21 1 12 -80z"/>
<path d="M12884 28469 c-8 -13 4 -226 16 -294 5 -27 14 -99 20 -160 11 -108
25 -175 38 -175 32 1 43 110 16 161 -8 16 -17 53 -20 82 -3 28 -11 55 -17 59
-9 5 -9 10 1 20 8 8 12 45 12 110 0 85 -3 101 -20 118 -12 12 -20 33 -20 55 0
34 -12 46 -26 24z"/>
<path d="M32090 28446 c0 -23 -7 -43 -20 -56 -17 -17 -20 -33 -20 -118 0 -65
4 -102 12 -110 10 -10 10 -15 1 -20 -6 -4 -14 -31 -17 -59 -3 -29 -12 -66 -20
-82 -27 -51 -16 -160 16 -161 13 0 27 67 38 175 6 61 15 133 20 160 16 81 17
297 3 302 -9 3 -13 -7 -13 -31z"/>
<path d="M10224 28225 c0 -121 2 -169 3 -107 2 62 2 161 0 220 -1 59 -3 8 -3
-113z"/>
<path d="M34774 28225 c0 -121 2 -169 3 -107 2 62 2 161 0 220 -1 59 -3 8 -3
-113z"/>
<path d="M12964 27725 c-7 -18 10 -188 21 -205 3 -6 15 -10 26 -10 28 0 25 71
-7 156 -30 80 -31 82 -40 59z"/>
<path d="M31996 27668 c-32 -90 -35 -158 -7 -158 28 0 31 9 44 115 14 127 0
143 -37 43z"/>
<path d="M13003 27413 c-8 -20 14 -214 25 -225 5 -5 17 -6 27 -2 16 6 17 17
12 96 -4 60 -11 93 -21 104 -9 8 -16 22 -16 30 0 19 -19 18 -27 -3z"/>
<path d="M31970 27416 c0 -8 -7 -22 -16 -30 -10 -11 -17 -44 -21 -104 -5 -79
-4 -90 12 -96 10 -4 22 -3 27 2 11 11 33 205 25 225 -8 21 -27 22 -27 3z"/>
<path d="M13036 27112 c-5 -8 20 -216 29 -239 9 -24 35 -1 35 31 0 58 -34 216
-46 216 -7 0 -15 -4 -18 -8z"/>
<path d="M31917 27028 c-21 -115 -22 -154 -2 -162 9 -3 18 0 20 7 9 23 34 231
29 239 -17 27 -31 0 -47 -84z"/>
<path d="M13076 26805 c-3 -8 1 -66 9 -127 8 -61 15 -115 15 -120 0 -4 11 -8
25 -8 26 0 26 0 19 63 -4 34 -15 88 -25 121 -11 32 -19 65 -19 72 0 19 -16 18
-24 -1z"/>
<path d="M31900 26806 c0 -7 -8 -40 -19 -72 -10 -33 -21 -87 -25 -121 -7 -63
-7 -63 19 -63 14 0 25 4 25 8 0 5 7 59 15 120 8 61 12 119 9 127 -8 19 -24 20
-24 1z"/>
<path d="M13110 26487 c0 -18 31 -251 34 -254 1 -1 11 0 23 3 19 5 20 11 15
72 -3 41 -10 70 -18 75 -9 5 -14 27 -14 62 0 48 -2 55 -20 55 -11 0 -20 -6
-20 -13z"/>
<path d="M31850 26445 c0 -35 -5 -57 -14 -62 -8 -5 -15 -34 -18 -75 -5 -61 -4
-67 15 -72 12 -3 22 -4 23 -3 3 3 34 236 34 254 0 7 -9 13 -20 13 -18 0 -20
-7 -20 -55z"/>
<path d="M13161 26191 c-12 -8 -11 -29 3 -142 18 -143 20 -149 42 -149 19 0
18 56 -1 135 -8 33 -14 84 -15 113 0 53 -4 59 -29 43z"/>
<path d="M31810 26148 c-1 -29 -7 -80 -15 -113 -19 -79 -20 -135 -1 -135 22 0
24 6 42 149 14 113 15 134 3 142 -25 16 -29 10 -29 -43z"/>
<path d="M13197 25832 c-3 -4 7 -104 23 -222 l28 -215 1 167 c1 98 -3 169 -9
173 -5 3 -12 28 -16 55 -6 46 -16 61 -27 42z"/>
<path d="M31776 25790 c-4 -27 -11 -52 -16 -55 -6 -4 -10 -75 -9 -173 l1 -167
28 215 c16 118 26 218 23 222 -11 19 -21 4 -27 -42z"/>
<path d="M10202 23678 c1 -871 3 -1547 5 -1503 7 192 7 3085 1 3085 -5 0 -7
-712 -6 -1582z"/>
<path d="M34788 23758 c1 -827 4 -1539 5 -1583 2 -44 4 632 5 1503 1 870 -1
1582 -5 1582 -5 0 -7 -676 -5 -1502z"/>
<path d="M13279 25175 c-3 -2 11 -131 30 -285 32 -260 36 -280 54 -280 19 0
19 5 14 78 -2 44 -12 92 -20 108 -8 16 -18 72 -21 124 -7 102 -35 260 -46 260
-4 0 -9 -2 -11 -5z"/>
<path d="M31687 25098 c-9 -46 -19 -126 -23 -178 -3 -52 -13 -108 -21 -124 -8
-16 -18 -64 -20 -108 -5 -73 -5 -78 14 -78 20 0 19 -10 86 549 1 8 -3 16 -9
18 -6 2 -17 -30 -27 -79z"/>
<path d="M13353 24528 c2 -18 19 -153 38 -299 25 -207 36 -266 46 -262 18 7
17 83 -2 153 -9 34 -15 102 -15 175 0 66 -5 127 -10 135 -5 8 -10 11 -11 5 -2
-28 -18 37 -18 78 -1 36 -5 47 -17 47 -13 0 -16 -7 -11 -32z"/>
<path d="M31619 24513 c0 -41 -16 -106 -18 -78 -1 6 -6 3 -11 -5 -5 -8 -10
-69 -10 -135 0 -73 -6 -141 -15 -175 -19 -70 -20 -146 -2 -153 10 -4 21 55 46
262 19 146 36 281 38 299 5 25 2 32 -11 32 -12 0 -16 -11 -17 -47z"/>
<path d="M13430 23933 c0 -10 7 -79 17 -154 15 -125 18 -136 36 -131 17 4 19
11 12 66 -3 34 -13 75 -22 91 -8 17 -17 56 -20 88 -3 31 -10 57 -14 57 -5 0
-9 -8 -9 -17z"/>
<path d="M31547 23893 c-3 -32 -12 -71 -20 -88 -9 -16 -19 -57 -22 -91 -7 -55
-5 -62 12 -66 18 -5 21 6 36 131 20 154 20 171 8 171 -4 0 -11 -26 -14 -57z"/>
<path d="M13473 23558 c4 -18 12 -79 18 -134 10 -77 16 -101 26 -97 9 4 13 28
13 87 0 48 -4 76 -9 68 -12 -19 -21 8 -21 64 0 34 -4 44 -16 44 -13 0 -15 -7
-11 -32z"/>
<path d="M31500 23546 c0 -56 -9 -83 -21 -64 -5 8 -9 -20 -9 -68 0 -59 4 -83
13 -87 10 -4 16 20 26 97 6 55 14 116 18 134 4 25 2 32 -11 32 -12 0 -16 -10
-16 -44z"/>
<path d="M13517 23280 c-7 -15 27 -308 37 -318 26 -25 24 98 -3 203 -11 44
-22 91 -24 105 -2 18 -5 21 -10 10z"/>
<path d="M31470 23269 c0 -14 -9 -61 -21 -104 -13 -52 -21 -115 -22 -187 -2
-82 -6 -111 -16 -118 -21 -12 -30 -195 -10 -188 19 6 95 596 79 612 -7 7 -10
2 -10 -15z"/>
<path d="M31384 22534 c-9 -50 -14 -59 -25 -43 -5 9 -9 -14 -9 -58 0 -54 3
-73 13 -73 9 0 17 30 25 102 12 101 10 145 -4 72z"/>
<path d="M31345 22258 c-4 -29 -11 -60 -15 -68 -4 -8 -11 -48 -15 -89 -6 -59
-5 -73 6 -69 13 4 17 30 43 236 3 23 2 42 -3 42 -5 0 -12 -24 -16 -52z"/>
<path d="M31305 21885 c-4 -47 -5 -88 -2 -91 3 -3 8 33 12 81 4 47 5 88 2 91
-3 3 -8 -33 -12 -81z"/>
<path d="M31292 21740 c0 -14 2 -19 5 -12 2 6 2 18 0 25 -3 6 -5 1 -5 -13z"/>
<path d="M31270 21661 c0 -22 -2 -48 -5 -58 -3 -10 1 -4 9 12 17 35 21 85 6
85 -5 0 -10 -18 -10 -39z"/>
<path d="M31230 21555 c1 -26 2 -28 11 -12 8 14 8 22 0 30 -8 8 -11 3 -11 -18z"/>
<path d="M14810 20395 c7 -8 19 -15 27 -15 13 0 13 3 3 15 -7 8 -19 15 -27 15
-13 0 -13 -3 -3 -15z"/>
<path d="M30160 20395 c-10 -12 -10 -15 3 -15 8 0 20 7 27 15 10 12 10 15 -3
15 -8 0 -20 -7 -27 -15z"/>
<path d="M16860 20305 l0 -35 60 0 60 0 0 -145 c0 -138 1 -145 20 -145 19 0
20 7 20 180 l0 180 -80 0 -80 0 0 -35z"/>
<path d="M17050 20160 c0 -173 1 -180 20 -180 19 0 20 -7 20 -254 0 -222 2
-255 16 -260 9 -3 54 -6 100 -6 l84 0 0 440 0 440 -120 0 -120 0 0 -180z"/>
<path d="M27710 19530 l0 -70 84 0 c116 0 116 0 116 76 l0 64 -100 0 -100 0 0
-70z"/>
<path d="M16020 19326 c0 -2 7 -9 15 -16 13 -11 14 -10 9 4 -5 14 -24 23 -24
12z"/>
<path d="M28956 19314 c-5 -14 -4 -15 9 -4 17 14 19 20 6 20 -5 0 -12 -7 -15
-16z"/>
<path d="M20690 17016 c0 -75 1 -76 101 -76 l69 0 0 70 0 70 -85 0 -85 0 0
-64z"/>
<path d="M20890 17010 c0 -68 1 -70 25 -70 24 0 25 2 25 70 0 68 -1 70 -25 70
-24 0 -25 -2 -25 -70z"/>
<path d="M14817 11273 c-14 -13 -6 -23 19 -23 22 0 25 2 14 15 -14 16 -23 19
-33 8z"/>
<path d="M30150 11265 c-11 -13 -9 -15 15 -15 16 0 25 5 23 12 -7 19 -24 20
-38 3z"/>
<path d="M16351 7783 c0 -170 3 -263 9 -263 6 0 10 -14 10 -32 0 -17 2 -29 4
-27 2 2 -2 135 -9 294 l-12 290 -2 -262z"/>
<path d="M28637 7805 c-4 -132 -9 -262 -11 -290 -2 -27 -1 -39 1 -25 3 14 9
28 14 31 5 3 8 113 7 265 l-3 259 -8 -240z"/>
<path d="M22013 7545 c0 -22 2 -30 4 -17 2 12 2 30 0 40 -3 9 -5 -1 -4 -23z"/>
<path d="M22983 7545 c0 -22 2 -30 4 -17 2 12 2 30 0 40 -3 9 -5 -1 -4 -23z"/>
<path d="M22012 7290 c-1 -25 -9 -72 -17 -105 -8 -33 -14 -67 -14 -75 -1 -13
0 -13 9 0 5 8 10 25 10 37 0 12 5 23 10 25 7 2 10 33 7 83 -1 44 -4 60 -5 35z"/>
<path d="M22981 7253 c0 -50 3 -83 9 -83 6 0 10 -10 10 -22 0 -13 5 -30 10
-38 9 -13 10 -13 10 0 0 8 -5 33 -11 54 -6 22 -14 69 -19 105 l-7 66 -2 -82z"/>
<path d="M16384 7185 c8 -83 18 -129 32 -150 8 -11 14 -32 14 -48 0 -20 6 -30
20 -34 23 -6 27 -28 5 -37 -25 -9 -18 -45 9 -52 14 -3 29 -3 34 0 5 3 28 -22
50 -57 42 -64 78 -107 90 -107 4 0 16 -14 27 -31 11 -17 30 -35 43 -40 17 -7
22 -14 17 -28 -8 -25 9 -35 35 -19 17 11 22 10 35 -10 9 -12 25 -22 37 -22 11
0 22 -8 25 -20 6 -23 38 -27 46 -6 4 9 -5 19 -25 27 -52 21 -171 104 -209 145
-90 96 -200 291 -264 469 l-25 70 4 -50z"/>
<path d="M28597 7172 c-50 -155 -175 -379 -266 -476 -38 -41 -157 -124 -209
-145 -20 -8 -29 -18 -25 -27 8 -21 40 -17 46 6 3 12 14 20 25 20 12 0 28 10
37 22 13 20 18 21 35 10 26 -16 43 -6 35 19 -5 14 0 21 17 28 13 5 32 23 43
40 11 17 23 31 27 31 12 0 48 43 90 107 22 35 45 60 50 57 5 -3 20 -3 34 0 27
7 34 43 9 52 -22 9 -18 31 5 37 14 4 20 14 20 34 0 16 7 38 15 49 8 10 15 32
15 47 0 16 5 37 11 48 5 11 9 37 7 59 l-3 40 -18 -58z"/>
<path d="M21910 6930 c0 -11 2 -20 4 -20 2 0 6 9 9 20 3 11 1 20 -4 20 -5 0
-9 -9 -9 -20z"/>
<path d="M23077 6930 c3 -11 7 -20 9 -20 2 0 4 9 4 20 0 11 -4 20 -9 20 -5 0
-7 -9 -4 -20z"/>
<path d="M21870 6878 c-12 -22 -12 -22 6 -6 10 10 15 20 12 24 -4 3 -12 -5
-18 -18z"/>
<path d="M23110 6891 c0 -5 7 -15 17 -22 15 -13 15 -12 4 9 -12 23 -21 28 -21
13z"/>
<path d="M21783 6781 c-53 -48 -66 -71 -38 -71 8 0 15 5 15 10 0 6 18 28 41
51 58 58 44 66 -18 10z"/>
<path d="M23160 6817 c0 -8 11 -22 24 -31 14 -8 33 -29 42 -46 10 -16 24 -30
31 -30 26 0 11 26 -42 73 -33 29 -55 42 -55 34z"/>
<path d="M21661 6681 c-13 -10 -19 -21 -14 -24 13 -8 47 17 42 31 -3 7 -12 5
-28 -7z"/>
<path d="M23310 6686 c0 -18 36 -40 44 -27 3 5 -5 16 -19 25 -21 14 -25 14
-25 2z"/>
<path d="M21579 6627 c-22 -15 -35 -32 -37 -50 -4 -33 22 -38 38 -7 6 11 15
20 20 20 6 0 19 9 29 19 14 14 16 22 8 30 -15 15 -19 14 -58 -12z"/>
<path d="M23363 6639 c-8 -8 -6 -16 8 -30 10 -10 23 -19 29 -19 5 0 14 -9 20
-20 16 -31 42 -26 38 7 -2 18 -15 35 -37 50 -39 26 -43 27 -58 12z"/>
<path d="M21435 6546 c-24 -14 -41 -31 -43 -44 -4 -26 14 -28 42 -7 11 8 30
15 43 15 23 0 48 33 38 50 -9 15 -36 10 -80 -14z"/>
<path d="M23485 6560 c-10 -17 15 -50 38 -50 13 0 32 -7 43 -15 28 -21 46 -19
42 7 -2 14 -19 30 -47 45 -48 25 -67 28 -76 13z"/>
<path d="M16920 6515 c0 -22 28 -33 109 -41 52 -5 72 -4 67 4 -3 6 -28 14 -54
18 -25 4 -61 13 -79 20 -40 17 -43 17 -43 -1z"/>
<path d="M28035 6516 c-17 -7 -51 -16 -77 -20 -26 -4 -51 -12 -54 -18 -5 -8
15 -9 67 -4 81 8 109 19 109 41 0 18 -6 18 -45 1z"/>
<path d="M21297 6494 c-3 -3 -23 -12 -44 -19 l-38 -14 62 -1 c72 0 94 6 86 26
-5 14 -54 20 -66 8z"/>
<path d="M23637 6487 c-8 -21 13 -27 86 -27 l62 1 -40 15 c-62 25 -101 28
-108 11z"/>
</g>
</svg>
